<mxfile host="app.diagrams.net" modified="2022-08-29T07:08:45.238Z" agent="5.0 (Macintosh; Intel Mac OS X 10_15_7) AppleWebKit/537.36 (KHTML, like Gecko) Chrome/104.0.0.0 Safari/537.36" etag="YsGiFVSbRG6kJdX2Sczm" version="20.1.1" type="github">
  <diagram id="9HILLFZ9olg8-R6ogrea" name="Page-1">
    <mxGraphModel dx="1162" dy="635" grid="1" gridSize="10" guides="1" tooltips="1" connect="1" arrows="1" fold="1" page="1" pageScale="1" pageWidth="827" pageHeight="1169" math="0" shadow="0">
      <root>
        <mxCell id="0" />
        <mxCell id="1" parent="0" />
        <mxCell id="47TowVXn4QOGjz8Yk6tz-1" value="用户&lt;br&gt;" style="shape=umlActor;verticalLabelPosition=bottom;verticalAlign=top;html=1;" vertex="1" parent="1">
          <mxGeometry x="60" y="355" width="30" height="60" as="geometry" />
        </mxCell>
        <mxCell id="47TowVXn4QOGjz8Yk6tz-2" value="查询订单详情" style="ellipse;whiteSpace=wrap;html=1;fillColor=#dae8fc;strokeColor=#6c8ebf;" vertex="1" parent="1">
          <mxGeometry x="260" y="470" width="140" height="70" as="geometry" />
        </mxCell>
        <mxCell id="47TowVXn4QOGjz8Yk6tz-3" value="查询订单列表" style="ellipse;whiteSpace=wrap;html=1;fillColor=#dae8fc;strokeColor=#6c8ebf;" vertex="1" parent="1">
          <mxGeometry x="260" y="350" width="140" height="70" as="geometry" />
        </mxCell>
        <mxCell id="47TowVXn4QOGjz8Yk6tz-4" value="我的关注数" style="ellipse;whiteSpace=wrap;html=1;fillColor=#dae8fc;strokeColor=#6c8ebf;" vertex="1" parent="1">
          <mxGeometry x="260" y="220" width="140" height="70" as="geometry" />
        </mxCell>
        <mxCell id="47TowVXn4QOGjz8Yk6tz-5" value="我的圈子数" style="ellipse;whiteSpace=wrap;html=1;fillColor=#dae8fc;strokeColor=#6c8ebf;" vertex="1" parent="1">
          <mxGeometry x="260" y="90" width="140" height="70" as="geometry" />
        </mxCell>
        <mxCell id="47TowVXn4QOGjz8Yk6tz-6" value="直播订单批量验证" style="ellipse;whiteSpace=wrap;html=1;fillColor=#dae8fc;strokeColor=#6c8ebf;" vertex="1" parent="1">
          <mxGeometry x="260" y="620" width="140" height="70" as="geometry" />
        </mxCell>
        <mxCell id="47TowVXn4QOGjz8Yk6tz-7" value="" style="endArrow=open;endFill=1;endSize=12;html=1;rounded=0;entryX=0.007;entryY=0.714;entryDx=0;entryDy=0;entryPerimeter=0;" edge="1" parent="1" target="47TowVXn4QOGjz8Yk6tz-5">
          <mxGeometry width="160" relative="1" as="geometry">
            <mxPoint x="100" y="370" as="sourcePoint" />
            <mxPoint x="460" y="360" as="targetPoint" />
          </mxGeometry>
        </mxCell>
        <mxCell id="47TowVXn4QOGjz8Yk6tz-8" value="" style="endArrow=open;endFill=1;endSize=12;html=1;rounded=0;entryX=0.021;entryY=0.7;entryDx=0;entryDy=0;entryPerimeter=0;" edge="1" parent="1" target="47TowVXn4QOGjz8Yk6tz-4">
          <mxGeometry width="160" relative="1" as="geometry">
            <mxPoint x="100" y="370" as="sourcePoint" />
            <mxPoint x="460" y="360" as="targetPoint" />
          </mxGeometry>
        </mxCell>
        <mxCell id="47TowVXn4QOGjz8Yk6tz-10" value="" style="endArrow=open;endFill=1;endSize=12;html=1;rounded=0;entryX=0;entryY=0.5;entryDx=0;entryDy=0;" edge="1" parent="1" target="47TowVXn4QOGjz8Yk6tz-2">
          <mxGeometry width="160" relative="1" as="geometry">
            <mxPoint x="100" y="370" as="sourcePoint" />
            <mxPoint x="460" y="360" as="targetPoint" />
          </mxGeometry>
        </mxCell>
        <mxCell id="47TowVXn4QOGjz8Yk6tz-11" value="" style="endArrow=open;endFill=1;endSize=12;html=1;rounded=0;entryX=0;entryY=0.5;entryDx=0;entryDy=0;" edge="1" parent="1" target="47TowVXn4QOGjz8Yk6tz-3">
          <mxGeometry width="160" relative="1" as="geometry">
            <mxPoint x="100" y="370" as="sourcePoint" />
            <mxPoint x="460" y="360" as="targetPoint" />
          </mxGeometry>
        </mxCell>
        <mxCell id="47TowVXn4QOGjz8Yk6tz-12" value="" style="endArrow=open;endFill=1;endSize=12;html=1;rounded=0;entryX=0.014;entryY=0.3;entryDx=0;entryDy=0;entryPerimeter=0;" edge="1" parent="1" target="47TowVXn4QOGjz8Yk6tz-6">
          <mxGeometry width="160" relative="1" as="geometry">
            <mxPoint x="100" y="370" as="sourcePoint" />
            <mxPoint x="280" y="580" as="targetPoint" />
          </mxGeometry>
        </mxCell>
      </root>
    </mxGraphModel>
  </diagram>
</mxfile>
